<?xml version="1.0" standalone="no"?>
<!DOCTYPE svg PUBLIC "-//W3C//DTD SVG 20010904//EN"
 "http://www.w3.org/TR/2001/REC-SVG-20010904/DTD/svg10.dtd">
<svg version="1.0" xmlns="http://www.w3.org/2000/svg"
 width="189.000000pt" height="189.000000pt" viewBox="0 0 189.000000 189.000000"
 preserveAspectRatio="xMidYMid meet">
<metadata>
Created by potrace 1.11, written by Peter Selinger 2001-2013
</metadata>
<g transform="translate(0.000000,189.000000) scale(0.100000,-0.100000)"
fill="#000000" stroke="none">
<path d="M793 1408 l-323 -323 -90 90 -90 90 -82 -83 -83 -82 90 -90 90 -90
-153 -153 -152 -152 82 -83 83 -82 152 152 153 153 298 -298 297 -297 160 160
160 160 -83 82 -82 83 -78 -78 -77 -77 -215 215 -215 215 85 85 85 85 375
-375 375 -375 78 78 c42 42 77 82 77 87 0 5 -33 42 -72 82 l-73 73 163 163
162 162 -78 78 c-42 42 -82 77 -87 77 -5 0 -81 -71 -167 -157 l-158 -158 -215
215 -215 215 160 160 160 160 -78 78 c-42 42 -82 77 -87 77 -6 0 -155 -145
-332 -322z"/>
<path d="M542 1517 c-39 -40 -72 -77 -72 -82 0 -6 35 -45 78 -88 l77 -77 78
78 c42 42 77 82 77 87 0 14 -142 155 -155 155 -6 0 -43 -33 -83 -73z"/>
</g>
</svg>
